<?xml version="1.0" encoding="UTF-8" standalone="no"?>
<!-- Created with Inkscape (http://www.inkscape.org/) -->

<svg
   xmlns:dc="http://purl.org/dc/elements/1.1/"
   xmlns:cc="http://creativecommons.org/ns#"
   xmlns:rdf="http://www.w3.org/1999/02/22-rdf-syntax-ns#"
   xmlns:svg="http://www.w3.org/2000/svg"
   xmlns="http://www.w3.org/2000/svg"
   xmlns:sodipodi="http://sodipodi.sourceforge.net/DTD/sodipodi-0.dtd"
   xmlns:inkscape="http://www.inkscape.org/namespaces/inkscape"
   version="1.1"
   id="svg4504"
   width="400"
   height="416"
   viewBox="0 0 400 416"
   sodipodi:docname="tree2.svg"
   inkscape:version="0.92.1 r15371">
  <metadata
     id="metadata4510">
    <rdf:RDF>
      <cc:Work
         rdf:about="">
        <dc:format>image/svg+xml</dc:format>
        <dc:type
           rdf:resource="http://purl.org/dc/dcmitype/StillImage" />
        <dc:title></dc:title>
      </cc:Work>
    </rdf:RDF>
  </metadata>
  <defs
     id="defs4508" />
  <sodipodi:namedview
     pagecolor="#ffffff"
     bordercolor="#666666"
     borderopacity="1"
     objecttolerance="10"
     gridtolerance="10"
     guidetolerance="10"
     inkscape:pageopacity="0"
     inkscape:pageshadow="2"
     inkscape:window-width="1920"
     inkscape:window-height="1003"
     id="namedview4506"
     showgrid="false"
     inkscape:zoom="0.56730769"
     inkscape:cx="480.51206"
     inkscape:cy="-43.560644"
     inkscape:window-x="-9"
     inkscape:window-y="-9"
     inkscape:window-maximized="1"
     inkscape:current-layer="svg4504" />
  <path
     style="fill:#000000"
     d="m 30.012584,370.59221 c -0.26929,-0.70174 -0.36956,-13.41919 -0.22284,-28.26099 l 0.26678,-26.98509 13.73058,-0.27809 13.73057,-0.2781 0.26943,-21.7219 0.26942,-21.72191 43.749996,-0.26051 43.75,-0.26051 v -21.4641 -21.46409 l -15.75,-0.2754 -15.75,-0.27539 v -28 -28 l 14.75,-0.27673 14.75,-0.27674 V 148.8194 126.84613 h 43.5 43.5 V 113.37359 99.901044 l -14.25,-0.27745 -14.25,-0.27746 v -30 -30 h 42 42 v 30 30 l -21.75,0.2695 -21.75,0.2695 v 13.480496 13.4805 h 43 43 v 21.98123 21.98122 l 22.75,0.26878 22.75,0.26877 v 28 28 h -44 -44 v -28 -28 l 15.75,-0.27539 15.75,-0.2754 v -16.4746 -16.47461 h -80.5 -80.5 v 16.48123 16.48122 l 22.75,0.26878 22.75,0.26877 v 28 28 l -21.75,0.2695 -21.75,0.2695 v 21.4731 21.4731 l 63.75,0.2574 63.75,0.2574 0.26945,21.73055 0.26945,21.73055 21.73055,0.26945 21.73055,0.26945 v 28 28 h -44 -44 v -28 -28 l 16.25,-0.27477 16.25,-0.27477 v -15.47523 -15.47523 h -52 -52 v 15.4805 15.4805 l 21.75,0.2695 21.75,0.2695 v 28 28 h -36 -36 v -28 -28 l 7.75,-0.29206 7.75,-0.29207 v -15.45793 -15.45794 h -43.5 -43.499996 v 15.4805 15.4805 l 21.75,0.2695 21.749996,0.2695 v 28 28 l -41.777166,0.26099 c -33.14205,0.20705 -41.87836,-0.003 -42.26677,-1.01491 z"
     id="path5061"
     inkscape:connector-curvature="0" />
</svg>
