<?xml version="1.0" encoding="UTF-8" standalone="no"?>
<!-- Created with Inkscape (http://www.inkscape.org/) -->

<svg
   xmlns:dc="http://purl.org/dc/elements/1.1/"
   xmlns:cc="http://creativecommons.org/ns#"
   xmlns:rdf="http://www.w3.org/1999/02/22-rdf-syntax-ns#"
   xmlns:svg="http://www.w3.org/2000/svg"
   xmlns="http://www.w3.org/2000/svg"
   xmlns:sodipodi="http://sodipodi.sourceforge.net/DTD/sodipodi-0.dtd"
   xmlns:inkscape="http://www.inkscape.org/namespaces/inkscape"
   width="210mm"
   height="297mm"
   viewBox="0 0 210 297"
   version="1.1"
   id="svg8"
   inkscape:version="0.92.1 r15371"
   sodipodi:docname="tree1.svg">
  <defs
     id="defs2" />
  <sodipodi:namedview
     id="base"
     pagecolor="#ffffff"
     bordercolor="#666666"
     borderopacity="1.0"
     inkscape:pageopacity="0.0"
     inkscape:pageshadow="2"
     inkscape:zoom="0.98994949"
     inkscape:cx="561.49052"
     inkscape:cy="564.2785"
     inkscape:document-units="mm"
     inkscape:current-layer="layer1"
     showgrid="false"
     inkscape:window-width="1920"
     inkscape:window-height="1003"
     inkscape:window-x="-9"
     inkscape:window-y="-9"
     inkscape:window-maximized="1" />
  <metadata
     id="metadata5">
    <rdf:RDF>
      <cc:Work
         rdf:about="">
        <dc:format>image/svg+xml</dc:format>
        <dc:type
           rdf:resource="http://purl.org/dc/dcmitype/StillImage" />
        <dc:title></dc:title>
      </cc:Work>
    </rdf:RDF>
  </metadata>
  <g
     inkscape:label="Layer 1"
     inkscape:groupmode="layer"
     id="layer1">
    <path
       style="fill:#000000;stroke-width:0.26458335"
       d="m 55.135225,169.83606 c -0.07125,-0.18567 -0.09778,-3.55049 -0.05896,-7.47738 l 0.07059,-7.13981 3.632881,-0.0736 3.632882,-0.0736 0.07128,-5.74725 0.07129,-5.74726 11.575522,-0.0689 11.575522,-0.0689 v -5.67904 -5.67904 l -4.167188,-0.0729 -4.167188,-0.0729 v -7.40834 -7.40833 l 3.902604,-0.0732 3.902605,-0.0732 v -5.81376 -5.81376 h 11.509376 11.509369 v -3.56461 -3.564604 l -3.77031,-0.0734 -3.77031,-0.0734 v -7.9375 -7.937501 h 11.1125 11.1125 v 7.937501 7.9375 l -5.75469,0.0713 -5.75469,0.0713 v 3.566714 3.56671 h 11.37709 11.37708 v 5.81587 5.81586 l 6.01927,0.0711 6.01927,0.0711 v 7.40833 7.40834 h -11.64167 -11.64166 v -7.40834 -7.40833 l 4.16718,-0.0729 4.16719,-0.0729 v -4.3589 -4.35891 H 109.9156 88.616645 v 4.36066 4.36065 l 6.019272,0.0711 6.019273,0.0711 v 7.40833 7.40834 l -5.75469,0.0713 -5.754688,0.0713 v 5.68142 5.68143 l 16.867188,0.0681 16.86719,0.0681 0.0713,5.74955 0.0713,5.74954 5.74954,0.0713 5.74954,0.0713 v 7.40833 7.40834 h -11.64166 -11.64167 v -7.40834 -7.40833 l 4.29948,-0.0727 4.29948,-0.0727 v -4.09449 -4.09448 H 106.07914 92.320812 v 4.09588 4.09588 l 5.754688,0.0713 5.75469,0.0713 v 7.40833 7.40834 h -9.525003 -9.525 v -7.40834 -7.40833 l 2.050521,-0.0773 2.050521,-0.0773 v -4.08991 -4.08991 H 77.371853 65.862477 v 4.09588 4.09588 l 5.754688,0.0713 5.754688,0.0713 v 7.40833 7.40834 l -11.053543,0.0691 c -8.768836,0.0548 -11.080318,-7.9e-4 -11.183085,-0.26853 z"
       id="path4491"
       inkscape:connector-curvature="0" />
  </g>
</svg>
